PathFileType	4	(X/Y/Z)	markers.trc																																																																																																																																																																
DataRate	CameraRate	NumFrames	NumMarkers	Units	OrigDataRate	OrigDataStartFrame	OrigNumFrames																																																																																																																																																												
200	200	6	54	mm	200	1023	100																																																																																																																																																												
Frame#	Time	FHD			LBHD			RBHD			C7			T10			CLAV			LSHO			LUUPA			LMUPA			LDUPA			LLEP			LMEP			LRAD			LUL			LRFIN			RSHO			RUPA1			RMUPA			RDUPA			RLEP			RMEP			RRAD			RUL			RUFIN			RASI			USACR			LSACR			RSACR			LTHI1			LTHI2			LTHI3			LTHI4			LTIB1			LTIB2			LTIB3			LTIB4			LLMAL			LHEE			LMT1			LMT2			RTHI			RTHI2			RTHI3			RTHI4			RLFC			RTIB1			RTIB2			RTIB3			RTIB4			RLMAL			RHEE			RMT1			RMT2			RMT5		
		X1	Y1	Z1	X2	Y2	Z2	X3	Y3	Z3	X4	Y4	Z4	X5	Y5	Z5	X6	Y6	Z6	X7	Y7	Z7	X8	Y8	Z8	X9	Y9	Z9	X10	Y10	Z10	X11	Y11	Z11	X12	Y12	Z12	X13	Y13	Z13	X14	Y14	Z14	X15	Y15	Z15	X16	Y16	Z16	X17	Y17	Z17	X18	Y18	Z18	X19	Y19	Z19	X20	Y20	Z20	X21	Y21	Z21	X22	Y22	Z22	X23	Y23	Z23	X24	Y24	Z24	X25	Y25	Z25	X26	Y26	Z26	X27	Y27	Z27	X28	Y28	Z28	X29	Y29	Z29	X30	Y30	Z30	X31	Y31	Z31	X32	Y32	Z32	X33	Y33	Z33	X34	Y34	Z34	X35	Y35	Z35	X36	Y36	Z36	X37	Y37	Z37	X38	Y38	Z38	X39	Y39	Z39	X40	Y40	Z40	X41	Y41	Z41	X42	Y42	Z42	X43	Y43	Z43	X44	Y44	Z44	X45	Y45	Z45	X46	Y46	Z46	X47	Y47	Z47	X48	Y48	Z48	X49	Y49	Z49	X50	Y50	Z50	X51	Y51	Z51	X52	Y52	Z52	X53	Y53	Z53	X54	Y54	Z54
																																																																																																																																																																			
1023	5.11	-1435.569987	1530.797087	299.963522	-1606.337305	1548.926435	198.385522	-1579.258008	1532.111474	321.028962	-1668.172705	1413.250473	251.13288	-1856.060968	1123.284578	315.158761	-1565.531944	1280.13741	246.050155	-1597.026534	1361.131425	120.271062	-1564.640699	1196.571656	28.728966	-1519.378017	1192.471937	43.459801	-1528.507167	1138.160874	19.801007	-1460.117571	1030.05006	22.278313	-1470.342924	1001.334272	85.981444	-1287.37154	1171.468357	137.735436	-1234.564857	1122.654658	120.473671	-1254.312482	1221.852764	100.088929	-1579.655319	1356.425282	408.591271	-1721.103006	1317.850737	526.215076	-1734.237042	1270.831734	526.280167	-1780.352572	1301.226776	552.207193	-1900.883529	1260.791447	596.64902	-1936.003545	1275.367304	539.989718	-2009.026841	1020.561386	591.462402	-2052.695085	1053.528227	639.398892	-1999.959499	964.395248	647.662711	-1735.531337	894.535156	357.351735	-1900.340593	1046.438958	335.528279	-1925.144075	1020.383134	312.832626	-1900.585827	1013.427849	365.527937	-1940.582161	704.710172	95.362571	-1918.97079	622.919892	84.254742	-1871.562806	617.121771	79.578878	-1948.109026	572.826974	104.074515	-1992.280355	287.200245	152.465793	-2071.078682	291.644114	115.797323	-2042.337376	264.768619	134.944137	-2088.39434	207.151747	179.286639	-2233.068303	133.136081	187.559394	-2316.15343	121.39724	240.413746	-2104.667338	53.116639	242.065514	-2110.644686	51.997692	196.363256	-1672.469433	739.761564	440.814771	-1610.204963	725.295586	427.131877	-1589.749005	746.02753	408.303419	-1581.384652	646.597195	410.267222	-1518.485462	577.412402	380.254554	-1660.625121	440.267653	338.949322	-1754.068423	460.124769	387.696601	-1737.436302	423.916681	364.478311	-1779.290395	397.009215	336.91938	-1880.41889	402.123171	380.597889	-1967.452161	433.21046	347.897339	-1841.376047	250.765099	306.043031	-1833.983156	251.446061	347.220488	-1866.923287	269.219915	405.308152
1024	5.115	-1406.128034	1533.695488	301.760312	-1576.541158	1550.118534	199.411056	-1550.083723	1534.169857	322.581169	-1637.744909	1414.222547	252.554737	-1823.938666	1122.737646	312.546972	-1533.766629	1281.758581	248.811265	-1564.77115	1364.828061	123.856152	-1524.991312	1204.69075	30.57854	-1480.128108	1202.195762	46.230895	-1486.156899	1147.90425	21.508743	-1414.258423	1042.472717	23.523731	-1423.303947	1012.770245	87.52677	-1253.237097	1197.072369	139.12591	-1196.735734	1152.396382	122.393853	-1224.052892	1249.606985	101.018405	-1549.57938	1358.107269	410.609431	-1692.710448	1324.388607	526.319336	-1707.01842	1277.790176	526.294026	-1752.928173	1309.516092	550.792124	-1875.420545	1272.997749	592.931383	-1908.617635	1287.629004	535.450514	-1990.726602	1035.769243	588.676649	-2034.172803	1070.821367	635.354146	-1984.396701	980.038798	645.516434	-1702.113363	896.735322	357.614829	-1868.024555	1045.743036	332.845306	-1892.479949	1019.417428	310.139873	-1868.705785	1012.985787	363.283244	-1914.587374	704.630964	96.004886	-1896.836509	621.868021	85.449302	-1849.800492	614.086782	81.09402	-1928.455249	573.472262	105.224388	-1983.221198	289.193545	153.329711	-2061.633291	295.432921	116.202626	-2033.601462	267.869439	135.463599	-2080.954667	210.728731	178.794942	-2227.210633	139.136937	185.725815	-2310.410309	131.037994	237.787205	-2103.766267	52.159612	241.766135	-2109.786832	51.598867	196.195143	-1636.381174	746.782214	440.040247	-1573.70205	734.627529	425.765394	-1554.228473	756.315891	406.859947	-1542.190915	656.878023	408.393625	-1476.45902	589.906647	378.142947	-1607.901742	441.320718	338.362838	-1702.434847	453.738328	387.784258	-1683.072808	418.84163	364.438656	-1722.760731	388.772338	337.026864	-1823.925775	385.29318	381.668613	-1913.446758	409.224815	349.848147	-1772.502265	238.483595	306.192372	-1764.905684	239.612648	347.392722	-1798.90713	254.096532	405.826713
1025	5.12	-1376.422318	1536.899226	303.648563	-1546.481687	1551.64543	200.595456	-1520.647323	1536.648739	324.3681	-1607.119363	1415.60553	254.162646	-1791.591228	1122.5436	309.657106	-1501.916936	1283.947191	251.689133	-1532.565406	1368.89326	127.589084	-1486.238127	1213.270775	32.325379	-1441.804164	1212.173492	48.820739	-1445.017203	1158.040056	23.081091	-1370.390452	1055.075495	24.155281	-1378.426997	1024.281694	88.504404	-1221.371904	1221.057355	140.285233	-1161.655399	1180.546895	124.049085	-1195.93083	1275.424333	101.862364	-1519.377508	1360.108794	412.746092	-1664.053857	1330.901626	526.388473	-1679.441236	1284.732128	526.241849	-1725.176213	1317.66153	549.25387	-1849.463408	1284.817296	588.822456	-1880.640354	1299.047719	530.409042	-1970.825913	1050.173821	585.859073	-2014.240654	1087.253241	631.057811	-1967.157047	995.17548	643.516616	-1668.462285	899.336766	358.103113	-1835.474786	1045.317967	329.69163	-1859.519228	1018.71269	306.892967	-1836.741151	1012.810487	360.537516	-1887.336783	705.118531	96.283196	-1873.49069	621.531487	86.605539	-1826.904089	611.821732	83.084735	-1907.71639	575.000058	106.093205	-1973.402849	292.504811	154.148641	-2051.478346	300.422604	116.639837	-2024.058653	272.232973	135.941777	-2072.508278	215.341205	178.078384	-2220.079398	145.695904	183.610298	-2303.150893	141.64781	234.810141	-2102.729897	51.233572	241.419262	-2108.689692	51.250868	195.964566	-1600.915847	753.523827	439.486458	-1537.934135	743.409207	424.781086	-1519.335479	765.934623	405.841054	-1504.0819	666.548948	406.954406	-1435.81335	601.568938	376.523757	-1555.403338	442.104059	337.938465	-1650.63852	446.8311	387.87333	-1628.554254	413.479545	364.432692	-1665.695605	380.388094	337.030795	-1766.317328	368.244283	382.416509	-1857.633176	384.716718	351.175043	-1702.710328	226.972425	306.206615	-1695.016747	228.581596	347.421134	-1729.953229	239.714519	406.102727
1026	5.125	-1346.442956	1540.326821	305.580873	-1516.203279	1553.478505	201.974117	-1490.915856	1539.466307	326.369554	-1576.338831	1417.354437	255.913823	-1759.070977	1122.659163	306.549063	-1470.039623	1286.642087	254.643089	-1500.439599	1373.220325	131.405654	-1448.428697	1222.047374	33.950137	-1404.42076	1222.129811	51.181835	-1405.163762	1168.241013	24.51193	-1328.549451	1067.470186	24.163449	-1335.732855	1035.449697	88.829426	-1191.494004	1243.028359	141.292479	-1129.023625	1206.610442	125.529502	-1169.582154	1298.954156	102.721813	-1489.109483	1362.405609	414.969973	-1635.204677	1337.3102	526.406825	-1651.558469	1291.556115	526.124716	-1697.152769	1325.562858	547.60927	-1823.053489	1296.131891	584.434353	-1852.171737	1309.53094	525.013745	-1949.355079	1063.574969	583.071686	-1992.915075	1102.578256	626.605965	-1948.215617	1009.568196	641.691998	-1634.64145	902.176171	358.705253	-1802.718576	1045.145725	326.162491	-1826.298938	1018.254989	303.196753	-1804.688437	1012.878719	357.346308	-1858.850233	706.139896	96.210906	-1848.900558	621.87816	87.749654	-1802.842892	610.334402	85.533088	-1885.80589	577.364248	106.723261	-1962.595153	297.140132	154.921764	-2040.39982	306.622004	117.127473	-2013.489392	277.867114	136.370551	-2062.844913	220.993109	177.156384	-2211.470754	152.829472	181.235797	-2294.139189	153.261731	231.524181	-2101.47941	50.487675	241.029295	-2107.243674	51.053948	195.662358	-1566.021148	759.827525	439.128046	-1502.817263	751.460635	424.183964	-1484.957875	774.703184	405.254693	-1466.972566	675.397467	405.976082	-1396.453625	612.132579	375.45526	-1503.169608	442.535221	337.740117	-1598.658913	439.375944	387.975384	-1573.904232	407.813899	364.475378	-1608.148635	371.919328	336.984172	-1707.613647	351.126891	382.82601	-1799.997356	359.959478	351.82481	-1632.161976	216.349933	306.10449	-1624.496054	218.440609	347.336828	-1660.238298	226.17524	406.137939
1027	5.13	-1316.185362	1543.892364	307.514033	-1485.75193	1555.581355	203.57591	-1460.851131	1542.529199	328.531138	-1545.444778	1419.408999	257.762702	-1726.429837	1123.038403	303.30285	-1438.176263	1289.755857	257.637785	-1468.404982	1377.705111	135.241227	-1411.600634	1230.756628	35.434996	-1367.982525	1231.794223	53.265127	-1366.654117	1178.187899	25.787748	-1288.747499	1079.289464	23.568099	-1295.213057	1045.899741	88.460254	-1163.28715	1262.650204	142.220049	-1098.497075	1230.146976	126.921402	-1144.611409	1319.903654	103.675434	-1458.827943	1364.955885	417.244405	-1606.227836	1343.531694	526.359759	-1623.419438	1298.160652	525.944873	-1668.910982	1333.11873	545.87163	-1796.230699	1306.812596	579.892844	-1823.308841	1319.008616	519.433457	-1926.359148	1075.78722	580.365356	-1970.221023	1116.557446	622.101958	-1927.558725	1022.975428	640.046729	-1600.721125	905.102235	359.304133	-1769.780652	1045.220878	322.36994	-1792.857855	1018.048818	299.180648	-1772.543746	1013.196955	353.80329	-1829.200163	707.659606	95.8252	-1823.068215	622.872997	88.904384	-1777.620894	609.625549	88.390132	-1862.65578	580.495608	107.168277	-1950.556029	303.040064	155.671402	-2028.151884	313.974903	117.676185	-2001.655158	284.712927	136.750617	-2051.759028	227.650619	176.069038	-2201.203433	160.564209	178.636094	-2283.168813	165.904084	227.980297	-2099.898672	50.133242	240.608593	-2105.307076	51.153529	195.288304	-1531.638634	765.544813	438.927897	-1468.264957	758.617957	423.956935	-1450.985019	782.456728	405.087	-1430.772698	683.232617	405.458126	-1358.275504	621.365513	374.97799	-1451.259207	442.529459	337.829763	-1546.489798	431.349856	388.107973	-1519.160062	401.829088	364.578743	-1550.196849	363.420016	336.929105	-1647.875406	334.068872	382.901125	-1740.594554	335.224723	351.789668	-1561.06209	206.694069	305.902319	-1553.553875	209.227988	347.162703	-1589.971075	213.519749	405.930787
1028	5.135	-1285.650307	1547.511013	309.41334	-1455.168383	1557.910711	205.417141	-1430.417486	1545.739736	330.776775	-1514.474267	1421.698019	259.666694	-1693.717466	1123.642272	300.011583	-1406.351358	1293.183262	260.642317	-1436.457955	1382.251353	139.033307	-1375.785584	1239.145071	36.762469	-1332.491545	1240.908785	55.018189	-1329.534219	1187.584054	26.881328	-1250.974962	1090.200438	22.41555	-1256.844562	1055.316434	87.402369	-1136.415095	1279.65562	143.130035	-1069.704906	1250.782359	128.301418	-1120.605962	1338.043655	104.780661	-1428.571714	1367.70062	419.532347	-1577.177545	1349.483589	526.238482	-1595.066156	1304.44906	525.712541	-1640.499364	1340.232174	544.055577	-1769.036701	1316.721899	575.33267	-1794.141765	1327.428804	513.844593	-1901.896861	1086.641895	577.779263	-1946.194585	1128.966996	617.653095	-1905.187812	1035.158073	638.565406	-1566.774089	907.988767	359.789504	-1736.680906	1045.551469	318.435032	-1759.239264	1018.116383	294.979257	-1740.308189	1013.794839	350.030998	-1798.495938	709.638023	95.179194	-1796.022521	624.47681	90.075293	-1751.264308	609.681084	91.574886	-1838.215438	584.299026	107.483431	-1937.049776	310.071355	156.43412	-2014.479591	322.355311	118.288871	-1988.320128	292.638724	137.092506	-2039.068015	235.236474	174.87817	-2189.142437	168.939663	175.862571	-2270.08617	179.581759	224.24341	-2097.826821	50.444296	240.182718	-2102.708601	51.746151	194.854545	-1497.710658	770.545408	438.842336	-1434.197523	764.740701	424.06164	-1417.318996	789.053201	405.303068	-1395.398775	689.891997	405.37602	-1321.181995	629.077942	375.109673	-1399.749372	442.011402	338.246541	-1494.142102	422.743995	388.295442	-1464.374924	395.521244	364.758778	-1491.944204	354.93802	336.893903	-1587.199652	317.176385	382.665618	-1679.547817	310.774782	351.112474	-1489.647328	198.039281	305.607203	-1482.422794	200.932597	346.907206	-1519.37606	201.734584	405.477534
